name Run_300 02_newCOP3_v24.mot
datacolumns 19
datarows 102
range 0.04 0.141
DataType=double
version=3
OpenSimVersion=4.3-2021-08-27-4bc7ad9
endheader
time	R_ground_force_vx	R_ground_force_vy	R_ground_force_vz	R_ground_force_px	R_ground_force_py	R_ground_force_pz	L_ground_force_vx	L_ground_force_vy	L_ground_force_vz	L_ground_force_px	L_ground_force_py	L_ground_force_pz	R_ground_torque_x	R_ground_torque_y	R_ground_torque_z	L_ground_torque_x	L_ground_torque_y	L_ground_torque_z
0.04	0	0	0	0	0	0	0	0	0	0	0	0	0	0	0	0	0	0
0.041	0	0	0	0	0	0	0	0	0	0	0	0	0	0	0	0	0	0
0.042	0	0	0	0	0	0	0	0	0	0	0	0	0	0	0	0	0	0
0.043	0	0	0	0	0	0	0	0	0	0	0	0	0	0	0	0	0	0
0.044	0	0	0	0	0	0	0	0	0	0	0	0	0	0	0	0	0	0
0.045	0	0	0	0	0	0	0	0	0	0	0	0	0	0	0	0	0	0
0.046	0	0	0	0	0	0	0	0	0	0	0	0	0	0	0	0	0	0
0.047	0	0	0	0	0	0	0	0	0	0	0	0	0	0	0	0	0	0
0.048	0	0	0	0	0	0	0	0	0	0	0	0	0	0	0	0	0	0
0.049	0	0	0	0	0	0	0	0	0	0	0	0	0	0	0	0	0	0
0.05	0	0	0	0	0	0	0	0	0	0	0	0	0	0	0	0	0	0
0.051	0	0	0	0	0	0	0	0	0	0	0	0	0	0	0	0	0	0
0.052	0	0	0	0	0	0	0	0	0	0	0	0	0	0	0	0	0	0
0.053	0	0	0	0	0	0	0	0	0	0	0	0	0	0	0	0	0	0
0.054	0	0	0	0	0	0	0	0	0	0	0	0	0	0	0	0	0	0
0.055	0	0	0	0	0	0	0	0	0	0	0	0	0	0	0	0	0	0
0.056	0	0	0	0	0	0	0	0	0	0	0	0	0	0	0	0	0	0
0.057	0	0	0	0	0	0	0	0	0	0	0	0	0	0	0	0	0	0
0.058	0	0	0	0	0	0	0	0	0	0	0	0	0	0	0	0	0	0
0.059	0	0	0	0	0	0	0	0	0	0	0	0	0	0	0	0	0	0
0.06	0	0	0	0	0	0	0	0	0	0	0	0	0	0	0	0	0	0
0.061	0	0	0	0	0	0	0	0	0	0	0	0	0	0	0	0	0	0
0.062	0	0	0	0	0	0	0	0	0	0	0	0	0	0	0	0	0	0
0.063	0	0	0	0	0	0	0	0	0	0	0	0	0	0	0	0	0	0
0.064	0	0	0	0	0	0	0	0	0	0	0	0	0	0	0	0	0	0
0.065	0	0	0	0	0	0	0	0	0	0	0	0	0	0	0	0	0	0
0.066	0	0	0	0	0	0	0	0	0	0	0	0	0	0	0	0	0	0
0.067	0	0	0	0	0	0	0	0	0	0	0	0	0	0	0	0	0	0
0.068	0	0	0	0	0	0	0	0	0	0	0	0	0	0	0	0	0	0
0.06900000000000001	0	0	0	0	0	0	0	0	0	0	0	0	0	0	0	0	0	0
0.07000000000000001	0	0	0	0	0	0	0	0	0	0	0	0	0	0	0	0	0	0
0.07099999999999999	0	0	0	0	0	0	0	0	0	0	0	0	0	0	0	0	0	0
0.07199999999999999	0	0	0	0	0	0	-2.114553	54.825001	-4.257971	0.468639	0	-0.641718	0	0	0	-0	2.396806	-0
0.073	0	0	0	0	0	0	-1.620228	62.020744	-4.719262	0.846982	0	-0.430539	0	0	0	-0	2.300765	-0
0.074	0	0	0	0	0	0	-1.022862	70.027748	-5.258637	0.924254	0	-0.387146	0	0	0	-0	2.184414	-0
0.075	0	0	0	0	0	0	-0.315478	78.906128	-5.885095	0.9576710000000001	0	-0.368243	0	0	0	-0	2.051845	-0
0.076	0	0	0	0	0	0	0.507522	88.71534699999999	-6.606284	0.976402	0	-0.357571	0	0	0	-0	1.907003	-0
0.077	0	0	0	0	0	0	1.449854	99.51339	-7.428216	0.988445	0	-0.35067	0	0	0	-0	1.753645	-0
0.078	0	0	0	0	0	0	2.51284	111.355743	-8.354979	0.996882	0	-0.345814	0	0	0	-0	1.595305	-0
0.079	0	0	0	0	0	0	3.694896	124.294266	-9.388458	1.003155	0	-0.342198	0	0	0	-0	1.435261	-0
0.08	0	0	0	0	0	0	4.991068	138.375961	-10.528069	1.008026	0	-0.33939	0	0	0	-0	1.276512	-0
0.081	0	0	0	0	0	0	6.392626	153.641586	-11.770514	1.011937	0	-0.337142	0	0	0	-0	1.121759	-0
0.082	0	0	0	0	0	0	7.886743	170.124252	-13.109571	1.015161	0	-0.335297	0	0	0	-0	0.973386	-0
0.083	0	0	0	0	0	0	9.456296	187.847885	-14.535924	1.017876	0	-0.333755	0	0	0	-0	0.833454	-0
0.08400000000000001	0	0	0	0	0	0	11.079795	206.825684	-16.037048	1.020202	0	-0.332445	0	0	0	-0	0.703695	-0
0.08500000000000001	0	0	0	0	0	0	12.731461	227.058578	-17.597168	1.022226	0	-0.331317	0	0	0	-0	0.585512	-0
0.08599999999999999	0	0	0	0	0	0	14.381462	248.533798	-19.19729	1.024007	0	-0.330336	0	0	0	-0	0.479986	-0
0.08699999999999999	0	0	0	0	0	0	15.99631	271.223541	-20.815332	1.025592	0	-0.329475	0	0	0	-0	0.38788	-0
0.08799999999999999	0	0	0	0	0	0	17.539402	295.083893	-22.426363	1.027016	0	-0.328714	0	0	0	-0	0.309658	-0
0.089	0	0	0	0	0	0	18.971704	320.053772	-24.002956	1.028304	0	-0.328036	0	0	0	-0	0.245494	-0
0.09	0	0	0	0	0	0	20.252571	346.054626	-25.515669	1.029478	0	-0.327429	0	0	0	-0	0.195296	-0
0.091	0	0	0	0	0	0	21.340633	372.990143	-26.933651	1.030554	0	-0.326883	0	0	0	-0	0.158727	-0
0.092	0	0	0	0	0	0	22.194763	400.746552	-28.225386	1.031546	0	-0.32639	0	0	0	-0	0.135224	-0
0.093	0	0	0	0	0	0	22.775078	429.19342	-29.359543	1.032463	0	-0.325945	0	0	0	-0	0.124028	-0
0.094	0	0	0	0	0	0	23.043909	458.184875	-30.305941	1.033316	0	-0.32554	0	0	0	-0	0.124207	-0
0.095	0	0	0	0	0	0	22.966749	487.561462	-31.036585	1.03411	0	-0.325173	0	0	0	-0	0.134684	-0
0.096	0	0	0	0	0	0	22.5131	517.152283	-31.52676	1.034853	0	-0.32484	0	0	0	-0	0.154264	-0
0.097	0	0	0	0	0	0	21.657206	546.7778929999999	-31.75613	1.035548	0	-0.324537	0	0	0	-0	0.18166	-0
0.098	0	0	0	0	0	0	20.378649	576.253113	-31.709784	1.0362	0	-0.324263	0	0	0	-0	0.215523	-0
0.099	0	0	0	0	0	0	18.662777	605.390503	-31.379219	1.036813	0	-0.324014	0	0	0	-0	0.254462	-0
0.1	0	0	0	0	0	0	16.500952	634.004089	-30.763155	1.037389	0	-0.323791	0	0	0	-0	0.297074	-0
0.101	0	0	0	0	0	0	13.89064	661.9123540000001	-29.868153	1.03793	0	-0.32359	0	0	0	-0	0.341966	-0
0.102	0	0	0	0	0	0	10.835325	688.9423829999999	-28.709002	1.038437	0	-0.323412	0	0	0	-0	0.387775	-0
0.103	0	0	0	0	0	0	7.344287	714.932495	-27.308796	1.038914	0	-0.323255	0	0	0	-0	0.43319	-0
0.104	0	0	0	0	0	0	3.432259	739.735535	-25.698704	1.039359	0	-0.323118	0	0	0	-0	0.47697	-0
0.105	0	0	0	0	0	0	-0.881	763.221191	-23.917398	1.039774	0	-0.323001	0	0	0	-0	0.517961	-0
0.106	0	0	0	0	0	0	-5.571198	785.278259	-22.010149	1.040159	0	-0.322904	0	0	0	-0	0.555104	-0
0.107	0	0	0	0	0	0	-10.610028	805.815796	-20.027611	1.040515	0	-0.322825	0	0	0	-0	0.587457	-0
0.108	0	0	0	0	0	0	-15.965701	824.764404	-18.024319	1.040839	0	-0.322766	0	0	0	-0	0.614193	-0
0.109	0	0	0	0	0	0	-21.603472	842.076782	-16.056984	1.041133	0	-0.322725	0	0	0	-0	0.634616	-0
0.11	0	0	0	0	0	0	-27.486164	857.7274169999999	-14.182616	1.041394	0	-0.322702	0	0	0	-0	0.64816	-0
0.111	0	0	0	0	0	0	-33.574673	871.712708	-12.456586	1.041622	0	-0.322697	0	0	0	-0	0.654394	-0
0.112	0	0	0	0	0	0	-39.828491	884.049927	-10.930698	1.041814	0	-0.322711	0	0	0	-0	0.65302	-0
0.113	0	0	0	0	0	0	-46.206219	894.776489	-9.651355000000001	1.04197	0	-0.322743	0	0	0	-0	0.643876	-0
0.114	0	0	0	0	0	0	-52.6661	903.948425	-8.657899	1.042085	0	-0.322794	0	0	0	-0	0.626925	-0
0.115	0	0	0	0	0	0	-59.166615	911.639465	-7.981207	1.042159	0	-0.322862	0	0	0	-0	0.602256	-0
0.116	0	0	0	0	0	0	-65.66703800000001	917.939026	-7.642576	1.042187	0	-0.322949	0	0	0	-0	0.5700730000000001	-0
0.117	0	0	0	0	0	0	-72.12809799999999	922.950623	-7.65295	1.042168	0	-0.323053	0	0	0	-0	0.530688	-0
0.118	0	0	0	0	0	0	-78.51255	926.790222	-8.012518	1.042098	0	-0.323175	0	0	0	-0	0.48451	-0
0.119	0	0	0	0	0	0	-84.78583500000001	929.58374	-8.710659	1.041972	0	-0.323314	0	0	0	-0	0.432035	-0
0.12	0	0	0	0	0	0	-90.916588	931.4655760000001	-9.72625	1.041788	0	-0.323471	0	0	0	-0	0.373834	-0
0.121	0	0	0	0	0	0	-96.877167	932.575867	-11.02829	1.041542	0	-0.323644	0	0	0	-0	0.310537	-0
0.122	0	0	0	0	0	0	-102.643974	933.058533	-12.576813	1.041229	0	-0.323833	0	0	0	-0	0.242828	-0
0.123	0	0	0	0	0	0	-108.197777	933.059082	-14.32403	1.040847	0	-0.324038	0	0	0	-0	0.171422	-0
0.124	0	0	0	0	0	0	-113.523697	932.722168	-16.21567	1.04039	0	-0.324257	0	0	0	-0	0.09705999999999999	-0
0.125	0	0	0	0	0	0	-118.611214	932.189453	-18.192448	1.039855	0	-0.32449	0	0	0	-0	0.020491	-0
0.126	0	0	0	0	0	0	-123.453865	931.5979	-20.191622	1.039239	0	-0.324736	0	0	0	0	-0.057539	0
0.127	0	0	0	0	0	0	-128.048904	931.077576	-22.148607	1.038537	0	-0.324993	0	0	0	0	-0.136298	0
0.128	0	0	0	0	0	0	-132.396774	930.750244	-23.998569	1.037748	0	-0.325261	0	0	0	0	-0.21508	0
0.129	0	0	0	0	0	0	-136.500488	930.727722	-25.678001	1.036867	0	-0.325538	0	0	0	0	-0.293217	0
0.13	0	0	0	0	0	0	-140.365036	931.111145	-27.126242	1.035893	0	-0.325822	0	0	0	0	-0.370087	0
0.131	0	0	0	0	0	0	-143.996735	931.989746	-28.28689	1.034824	0	-0.326112	0	0	0	0	-0.44512	0
0.132	0	0	0	0	0	0	-147.402588	933.440491	-29.109129	1.033659	0	-0.326406	0	0	0	0	-0.517809	0
0.133	0	0	0	0	0	0	-150.589813	935.527344	-29.548906	1.032397	0	-0.326703	0	0	0	0	-0.587713	0
0.134	0	0	0	0	0	0	-153.565384	938.301697	-29.569969	1.031038	0	-0.327	0	0	0	0	-0.654461	0
0.135	0	0	0	0	0	0	-156.335709	941.8017579999999	-29.144751	1.029584	0	-0.327297	0	0	0	0	-0.717757	0
0.136	0	0	0	0	0	0	-158.906448	946.053406	-28.255053	1.028035	0	-0.327592	0	0	0	0	-0.777379	0
0.137	0	0	0	0	0	0	-161.282425	951.07019	-26.89255	1.026395	0	-0.327882	0	0	0	0	-0.83318	0
0.138	0	0	0	0	0	0	-163.46759	956.85376	-25.059076	1.024665	0	-0.328166	0	0	0	0	-0.885085	0
0.139	0	0	0	0	0	0	-165.465195	963.39502	-22.766689	1.022851	0	-0.328443	0	0	0	0	-0.933094	0
0.14	0	0	0	0	0	0	-167.277786	970.6741940000001	-20.037512	1.020957	0	-0.328711	0	0	0	0	-0.977271	0
0.141	0	0	0	0	0	0	-168.907471	978.662109	-16.903322	1.018987	0	-0.32897	0	0	0	0	-1.017744	0
